<svg xmlns="http://www.w3.org/2000/svg" viewBox="0 0 32 32">
  <rect width="32" height="32" rx="7" fill="#0f172a"/>
  <rect width="32" height="32" rx="7" fill="none" stroke="rgba(56,189,248,0.18)" stroke-width="1"/>
  <g transform="scale(0.2462)">
    <polygon points="65,14 107,39 107,89 65,114 23,89 23,39" fill="none" stroke="#1e3a8a" stroke-width="2"/>
    <polygon points="65,30 95,47 95,83 65,100 35,83 35,47"   fill="none" stroke="#1e3a8a" stroke-width="2"/>
    <polygon points="65,46 83,56 83,76 65,86 47,76 47,56"    fill="none" stroke="#1e3a8a" stroke-width="2"/>
    <line x1="65" y1="14" x2="65" y2="114"  stroke="#1e3a8a" stroke-width="2"/>
    <line x1="23" y1="39" x2="107" y2="89"  stroke="#1e3a8a" stroke-width="2"/>
    <line x1="107" y1="39" x2="23" y2="89"  stroke="#1e3a8a" stroke-width="2"/>
    <polygon points="65,18 103,42 101,88 65,108 27,85 29,40" fill="#2563eb" opacity="0.28"/>
    <polygon points="65,18 103,42 101,88 65,108 27,85 29,40" fill="none" stroke="#38bdf8" stroke-width="5"/>
    <circle cx="65"  cy="18"  r="8" fill="#38bdf8"/>
    <circle cx="103" cy="42"  r="8" fill="#38bdf8"/>
    <circle cx="101" cy="88"  r="8" fill="#38bdf8"/>
    <circle cx="65"  cy="108" r="8" fill="#38bdf8"/>
    <circle cx="27"  cy="85"  r="8" fill="#38bdf8"/>
    <circle cx="29"  cy="40"  r="8" fill="#38bdf8"/>
    <circle cx="65" cy="64" r="7"   fill="#2563eb"/>
    <circle cx="65" cy="64" r="3.5" fill="#38bdf8"/>
  </g>
</svg>
